<svg id="Слой_5" data-name="Слой 5" xmlns="http://www.w3.org/2000/svg" xmlns:xlink="http://www.w3.org/1999/xlink" viewBox="0 0 109.62 30"><defs><style>.cls-1,.cls-10,.cls-11,.cls-12,.cls-13,.cls-14,.cls-15,.cls-16,.cls-17,.cls-18,.cls-19,.cls-20,.cls-21,.cls-22,.cls-23,.cls-24,.cls-25,.cls-26,.cls-27,.cls-28,.cls-29,.cls-3,.cls-30,.cls-31,.cls-32,.cls-33,.cls-34,.cls-35,.cls-36,.cls-37,.cls-38,.cls-39,.cls-4,.cls-40,.cls-41,.cls-42,.cls-43,.cls-44,.cls-45,.cls-46,.cls-47,.cls-48,.cls-49,.cls-5,.cls-6,.cls-7,.cls-8,.cls-9{fill:none;}.cls-2{clip-path:url(#clip-path);}.cls-10,.cls-11,.cls-12,.cls-13,.cls-3,.cls-4,.cls-49,.cls-5,.cls-6,.cls-7,.cls-8,.cls-9{stroke:#e30613;}.cls-10,.cls-11,.cls-12,.cls-13,.cls-14,.cls-15,.cls-16,.cls-17,.cls-18,.cls-19,.cls-20,.cls-21,.cls-22,.cls-23,.cls-24,.cls-25,.cls-26,.cls-27,.cls-28,.cls-29,.cls-3,.cls-30,.cls-31,.cls-32,.cls-33,.cls-34,.cls-35,.cls-36,.cls-37,.cls-38,.cls-39,.cls-4,.cls-40,.cls-41,.cls-42,.cls-43,.cls-44,.cls-45,.cls-46,.cls-47,.cls-48,.cls-49,.cls-5,.cls-6,.cls-7,.cls-8,.cls-9{stroke-miterlimit:10;}.cls-3{stroke-width:0.2px;}.cls-4{stroke-width:0.23px;}.cls-5{stroke-width:0.26px;}.cls-6{stroke-width:0.29px;}.cls-7{stroke-width:0.33px;}.cls-8{stroke-width:0.36px;}.cls-9{stroke-width:0.39px;}.cls-10{stroke-width:0.42px;}.cls-11{stroke-width:0.45px;}.cls-12{stroke-width:0.48px;}.cls-13{stroke-width:0.51px;}.cls-14,.cls-15,.cls-16,.cls-17,.cls-18,.cls-19,.cls-20,.cls-21,.cls-22,.cls-23,.cls-24,.cls-25,.cls-26,.cls-27,.cls-28,.cls-29,.cls-30,.cls-31,.cls-32,.cls-33,.cls-34,.cls-35,.cls-36,.cls-37,.cls-38,.cls-39,.cls-40,.cls-41,.cls-42,.cls-43,.cls-44,.cls-45,.cls-46,.cls-47,.cls-48{stroke:#0c51a1;}.cls-14{stroke-width:0.54px;}.cls-15{stroke-width:0.57px;}.cls-16{stroke-width:0.6px;}.cls-17{stroke-width:0.63px;}.cls-18{stroke-width:0.67px;}.cls-19{stroke-width:0.7px;}.cls-20{stroke-width:0.73px;}.cls-21{stroke-width:0.76px;}.cls-22{stroke-width:0.79px;}.cls-23{stroke-width:0.82px;}.cls-24{stroke-width:0.85px;}.cls-25{stroke-width:0.88px;}.cls-26{stroke-width:0.91px;}.cls-27{stroke-width:0.94px;}.cls-28{stroke-width:0.97px;}.cls-29{stroke-width:1px;}.cls-30{stroke-width:1.03px;}.cls-31{stroke-width:1.06px;}.cls-32{stroke-width:1.1px;}.cls-33{stroke-width:1.13px;}.cls-34{stroke-width:1.16px;}.cls-35{stroke-width:1.19px;}.cls-36{stroke-width:1.22px;}.cls-37{stroke-width:1.25px;}.cls-38{stroke-width:1.28px;}.cls-39{stroke-width:1.31px;}.cls-40{stroke-width:1.34px;}.cls-41{stroke-width:1.37px;}.cls-42{stroke-width:1.4px;}.cls-43{stroke-width:1.44px;}.cls-44{stroke-width:1.47px;}.cls-45{stroke-width:1.5px;}.cls-46{stroke-width:1.53px;}.cls-47{stroke-width:1.56px;}.cls-48{stroke-width:1.59px;}.cls-49{stroke-width:1.62px;}</style><clipPath id="clip-path"><path class="cls-1" d="M65.62,6.2h1V7.06h-1V6.2Zm2.14,0.6V6.2h0.95V7.06H67.76V6.8Zm-53-6.08L8.33,5.53l0,0C7.72,5,7.3,4.64,7,5.09a0.54,0.54,0,0,0-.11.32h0V4.2L0.57,1.48,0.11,2.3h0L0,2.52l6.95,3.2a1.53,1.53,0,0,0,.6.56,1.56,1.56,0,0,1,.58,1c0,0.23.08,0.48,0.14,0.76l-0.66.29,0.74,7h1.81L9.89,11.56A6.87,6.87,0,0,0,14,14.27l7.41,0.58,0.49,0.9H25.5v-0.9l19.26,1.32s1,8.07,8.23,8.07H63.52v2a1.9,1.9,0,1,0,.51.07V24.23H82v2a2,2,0,0,0-.49-0.07,1.9,1.9,0,1,0,1.28.5V24.23h9.86a1.13,1.13,0,0,0,1.15-1A1.29,1.29,0,0,0,92.66,22a15.12,15.12,0,0,0,0-2.43,16,16,0,0,0-2.92-4c-0.82-.78-1.65-0.7-4.2-1.28A39.14,39.14,0,0,0,80,13.57V10.93a2.7,2.7,0,0,0-2.22-.86h-3.5s0.33-1.73-1-1.73l-5.47,0V7.48h1.36V6.17h40.5V5.62h-0.06l-2.49-1.08H69.74V5.62h-2V4.88H66.65V5.62h-2.7V4.54H26.63l-2.5,1.08H24.07V6.17H65.21v1.3h1.44V8.32L61,8.3c-1.93,0-2.59.08-3.09,0.45s-1.61,1.36-1.61,1.36,0-.53,0-1.4a0.85,0.85,0,0,0-.95-0.82,0.8,0.8,0,0,0-1,.62c-0.08.78-.33,2.31-0.33,2.31l-39.14.86S10.06,7.11,8.64,5.81L9.71,5l1.07,1,5.68-4.14L15.82,0.43h0l-0.06-.08L15.63,0Z"/></clipPath></defs><title>icon-productions-active</title><g class="cls-2"><line class="cls-3" x1="-59.12" y1="25.24" x2="55.49" y2="-89.37"/><line class="cls-4" x1="-57.45" y1="26.91" x2="57.16" y2="-87.7"/><line class="cls-5" x1="-55.79" y1="28.58" x2="58.82" y2="-86.03"/><line class="cls-6" x1="-54.12" y1="30.24" x2="60.49" y2="-84.37"/><line class="cls-7" x1="-52.46" y1="31.91" x2="62.15" y2="-82.7"/><line class="cls-8" x1="-50.79" y1="33.57" x2="63.82" y2="-81.04"/><line class="cls-9" x1="-49.13" y1="35.24" x2="65.48" y2="-79.37"/><line class="cls-10" x1="-47.46" y1="36.9" x2="67.15" y2="-77.71"/><line class="cls-11" x1="-45.8" y1="38.57" x2="68.81" y2="-76.04"/><line class="cls-12" x1="-44.13" y1="40.23" x2="70.48" y2="-74.38"/><line class="cls-13" x1="-42.46" y1="41.9" x2="72.14" y2="-72.71"/><line class="cls-14" x1="-40.8" y1="43.56" x2="73.81" y2="-71.05"/><line class="cls-15" x1="-39.13" y1="45.23" x2="75.48" y2="-69.38"/><line class="cls-16" x1="-37.47" y1="46.89" x2="77.14" y2="-67.72"/><line class="cls-17" x1="-35.8" y1="48.56" x2="78.81" y2="-66.05"/><line class="cls-18" x1="-34.14" y1="50.22" x2="80.47" y2="-64.39"/><line class="cls-19" x1="-32.47" y1="51.89" x2="82.14" y2="-62.72"/><line class="cls-20" x1="-30.81" y1="53.55" x2="83.8" y2="-61.05"/><line class="cls-21" x1="-29.14" y1="55.22" x2="85.47" y2="-59.39"/><line class="cls-22" x1="-27.48" y1="56.89" x2="87.13" y2="-57.72"/><line class="cls-23" x1="-25.81" y1="58.55" x2="88.8" y2="-56.06"/><line class="cls-24" x1="-24.15" y1="60.22" x2="90.46" y2="-54.39"/><line class="cls-25" x1="-22.48" y1="61.88" x2="92.13" y2="-52.73"/><line class="cls-26" x1="-20.81" y1="63.55" x2="93.79" y2="-51.06"/><line class="cls-27" x1="-19.15" y1="65.21" x2="95.46" y2="-49.4"/><line class="cls-28" x1="-17.48" y1="66.88" x2="97.13" y2="-47.73"/><line class="cls-29" x1="-15.82" y1="68.54" x2="98.79" y2="-46.07"/><line class="cls-30" x1="-14.15" y1="70.21" x2="100.46" y2="-44.4"/><line class="cls-31" x1="-12.49" y1="71.87" x2="102.12" y2="-42.74"/><line class="cls-32" x1="-10.82" y1="73.54" x2="103.79" y2="-41.07"/><line class="cls-33" x1="-9.16" y1="75.21" x2="105.45" y2="-39.41"/><line class="cls-34" x1="-7.49" y1="76.87" x2="107.12" y2="-37.74"/><line class="cls-35" x1="-5.83" y1="78.54" x2="108.78" y2="-36.08"/><line class="cls-36" x1="-4.16" y1="80.2" x2="110.45" y2="-34.41"/><line class="cls-37" x1="-2.5" y1="81.87" x2="112.11" y2="-32.75"/><line class="cls-38" x1="-0.83" y1="83.53" x2="113.78" y2="-31.08"/><line class="cls-39" x1="0.84" y1="85.2" x2="115.44" y2="-29.41"/><line class="cls-40" x1="2.5" y1="86.86" x2="117.11" y2="-27.75"/><line class="cls-41" x1="4.17" y1="88.53" x2="118.77" y2="-26.08"/><line class="cls-42" x1="5.83" y1="90.19" x2="120.44" y2="-24.42"/><line class="cls-43" x1="7.5" y1="91.86" x2="122.1" y2="-22.75"/><line class="cls-44" x1="9.16" y1="93.52" x2="123.77" y2="-21.09"/><line class="cls-45" x1="10.83" y1="95.19" x2="125.44" y2="-19.42"/><line class="cls-46" x1="12.49" y1="96.85" x2="127.1" y2="-17.76"/><line class="cls-47" x1="14.16" y1="98.52" x2="128.77" y2="-16.09"/><line class="cls-48" x1="15.82" y1="100.18" x2="130.43" y2="-14.43"/><line class="cls-49" x1="17.49" y1="101.85" x2="132.1" y2="-12.76"/></g></svg>