<svg id="Слой_1" data-name="Слой 1" xmlns="http://www.w3.org/2000/svg" viewBox="0 0 84.44 83.57"><defs><style>.cls-1,.cls-2{fill:#ec1e52;}.cls-2,.cls-3{fill-rule:evenodd;}.cls-3,.cls-4{fill:#0751a0;}</style></defs><title>Векторный смарт-объект</title><path class="cls-1" d="M18.48,74.28a2.12,2.12,0,0,1-1.9-2.23,2.09,2.09,0,0,1,1.86-2.21,1.55,1.55,0,0,1,.33,0h1.68l3.2-3.26-5.81.06a5.59,5.59,0,0,0-4.54,8.73c0.77,1.09,2,2.09,5.48,2.11l4.35,0V74.34H18.83A1.68,1.68,0,0,1,18.48,74.28Zm3.72,0.89V76.6H18.94c1.15,0-.18,0-0.18,0H18.08c-2.55,0-3.3-.64-4.06-1.65a5.08,5.08,0,0,1,0-5.4,5.11,5.11,0,0,1,3.57-2,2,2,0,0,1,.35,0h3.56L20.07,69H18.22a2.82,2.82,0,0,0-2.58,3,3.06,3.06,0,0,0,2.85,3.1,3.45,3.45,0,0,0,.35,0H22.2Z"/><path class="cls-2" d="M44.15,66.67a2.42,2.42,0,0,0-.63-0.09c-0.38,0-7.4,0-7.4,0v3.25h4.3l-5.13,4a2,2,0,0,0-.68,1.8,2.11,2.11,0,0,0,1.45,1.7,4.25,4.25,0,0,0,.83.08h6l0.33-.08,2.52-2.51V68.47A2,2,0,0,0,44.15,66.67Zm0.77,1.91v6l-2.2,2.05H37a4.14,4.14,0,0,1-.48,0,1.24,1.24,0,0,1-1-.9,1,1,0,0,1,.28-1.08s5-4,5.25-4.18A6.28,6.28,0,0,0,41.6,70a0.78,0.78,0,0,0,.19-0.75A1,1,0,0,0,41,68.93H37V67.49h6.28a1.86,1.86,0,0,1,1.16.3A0.87,0.87,0,0,1,44.92,68.58Z"/><path class="cls-2" d="M38.46,74.3l0.25,0.85h4V71Zm3.35-.06H40l1.83-1.38v1.38Z"/><path class="cls-1" d="M58.84,67.52a1.75,1.75,0,0,0-1.25-.9,3.28,3.28,0,0,0-.6,0h-7.8l-0.4.16-2.5,2.5V83.57c0.27-.18,3.86-3.62,3.86-3.62l0.09-.16,0.07-2.57,7.4-7.1a12.54,12.54,0,0,0,.89-0.9A1.82,1.82,0,0,0,58.84,67.52ZM58,68.59a6.61,6.61,0,0,1-.52.56l-8.05,7.67V79.4L47.2,81.53v-12l2.11-2.06h8.05a1.31,1.31,0,0,1,.3.05,0.61,0.61,0,0,1,.36.37A0.68,0.68,0,0,1,58,68.59Z"/><path class="cls-1" d="M54.05,69.12a1.58,1.58,0,0,0-.94-0.17H49.39v5.69l4.12-4a8.19,8.19,0,0,0,.69-0.79A0.61,0.61,0,0,0,54.05,69.12Zm-3.74,3.45V69.83h2.74Z"/><path class="cls-1" d="M23.9,66.58V77.43h4v-7.6h2.43v7.6h3.94V66.58H23.9Zm9.41,10H31.18V68.93H26.94v7.66H24.81V67.48h8.5v9.11Z"/><path class="cls-1" d="M66.71,71.58l4.7-5H67c-1.25,1.13-3.57,3.7-3.57,3.7v-3.7H59.5V77.43h3.95V72.89c0.25,0.58,3.87,4.38,3.87,4.38l0.08,0.15h4.71Zm-6.38,5v-9.1h2.2v9.1h-2.2Zm4.21-3.69c-0.8-.93-0.64-1.32-0.64-1.32a2.07,2.07,0,0,1,.7-1.31c0.69-.69,1.88-2,2.72-2.79h2l-3.86,4.1,4.55,5h-2.2S65.34,73.83,64.54,72.9Z"/><path class="cls-3" d="M84.44,25a7.48,7.48,0,0,1-3.35,1.19h-47c-1.69,0-3.79-2.07-2.07-3.79a12.5,12.5,0,0,1,9-3.28c4.23,0,7.78.74,11.38,3.62h6.54s-5.19-7.37-14.47-8.1c-0.77-.06-1.52-0.1-2.24-0.11-8.39-.15-13.43,3.07-19.48,11.66H3.62A15.43,15.43,0,0,1,0,24.78s2.86,7.68,6,8.62H20.51a15.15,15.15,0,0,0,.34,5.68H10.34a11.4,11.4,0,0,1-4-1.21s2.83,8.36,6,8.1H50.31c1.45,0,4.94,2.8.52,5.17s-10.36,4.72-19.64-1.38H25S31.75,58.31,42.21,58,57.93,52.88,61.86,46H72.55s2.48,0.59,5.69-7.93a12.13,12.13,0,0,1-4.14,1H63.93a12,12,0,0,0-.17-5.68h14S81,33.46,84.44,25ZM57.55,44.08c-1.12-5.63-4.48-5.17-4.48-5.17H31.36c-9.38,0-4.48-10.51-4.48-10.51,1.19,5.5,5.34,5.17,5.34,5.17H53.94C62.27,33.92,57.55,44.08,57.55,44.08Z"/><path class="cls-4" d="M75.46,19H75.13V15.15H74.85a2.43,2.43,0,0,0-1.19.24,2.07,2.07,0,0,0-1,2V19H71.8V18.66h0.58V17.4a2.23,2.23,0,0,1,2.48-2.57h0.61V19Z"/><path class="cls-4" d="M77.3,17.77l-0.18-.25,2.67-1.83a1.74,1.74,0,0,0-1.37-.63,1.8,1.8,0,0,0-.86.21,1.82,1.82,0,0,0-.95,1.66,1.77,1.77,0,0,0,1.8,1.82A1.8,1.8,0,0,0,80.24,17h0.35a2.19,2.19,0,1,1-.34-1.23Z"/><path class="cls-4" d="M84.05,14.83v0.32H82.62V19H82.29V15.15H80.85V14.83h3.2Z"/><path class="cls-1" d="M69.42,12q0.48,0.89.76,1.53a3.05,3.05,0,0,1,.28,1.19,4.2,4.2,0,0,1-.65,2.38,4,4,0,0,1-1.61,1.44,4.42,4.42,0,0,1-2,.46,2.91,2.91,0,0,1-1.58-.46,1.36,1.36,0,0,1-.74-1.18,2.7,2.7,0,0,1,.41-1.25,11.25,11.25,0,0,1,1.21-1.69q0.8-1,2-2.17A5.34,5.34,0,0,1,66,8.91a3.56,3.56,0,0,1,.44-1.82,3.41,3.41,0,0,1,1.32-1.26,6.9,6.9,0,0,1,2.16-.73,17.26,17.26,0,0,1,3-.23A8.65,8.65,0,0,1,74.48,5a0.45,0.45,0,0,1,.43.45,1.24,1.24,0,0,1-.12.39,5.29,5.29,0,0,1-.33.65,5.58,5.58,0,0,1-.48.7,0.57,0.57,0,0,1-.29.22,1.74,1.74,0,0,1-.53,0,1.08,1.08,0,0,1,.19.52,0.86,0.86,0,0,1-.28.58q-0.28.3-1.12,1T70.5,10.85L70,11.41Zm-1.19,1.19A28.94,28.94,0,0,0,66,15.73a3.71,3.71,0,0,0-.79,1.37c0,0.46.4,0.69,1.19,0.69a2.08,2.08,0,0,0,.81-0.19A2.64,2.64,0,0,0,68,17.09a2.58,2.58,0,0,0,.58-0.83,2.64,2.64,0,0,0,.23-1.1A3.34,3.34,0,0,0,68.23,13.16Zm0.56-2.1,1.37-1.2,1.42-1.23q0.63-.55.89-0.81a0.87,0.87,0,0,0,.25-0.34q0-.29-1.4-0.29a5.65,5.65,0,0,0-2.67.5,1.52,1.52,0,0,0-.9,1.38A2.06,2.06,0,0,0,68,10,6,6,0,0,0,68.79,11.06Z"/><path class="cls-1" d="M78.5,0q1.81,0.09,2.79.08Q82.72,0.08,84,0a14.75,14.75,0,0,1-.88,1.63,2.31,2.31,0,0,1-.59.72,12.49,12.49,0,0,1-2.06.09l-2.35,0a7.41,7.41,0,0,0-1.9,2.51,10.19,10.19,0,0,1,3-.68,2.65,2.65,0,0,1,2,.73,2.88,2.88,0,0,1,.71,2.1,4.75,4.75,0,0,1-1.13,3.11,7.55,7.55,0,0,1-2.89,2.13,9,9,0,0,1-3.58.75,2.54,2.54,0,0,1-1.48-.33,1.4,1.4,0,0,1-.44-1.19,1.58,1.58,0,0,1,.19-0.82,1.89,1.89,0,0,1,.63-0.61,4.1,4.1,0,0,1,2.27-.71c0.08,0,.13,0,0.13.08a0.12,0.12,0,0,1-.08.08l-0.09,0q-1.34.49-1.34,0.78c0,0.18.29,0.27,0.89,0.27a6.46,6.46,0,0,0,2.71-.65A8.9,8.9,0,0,0,80,8.52a2.39,2.39,0,0,0,1-1.45,0.74,0.74,0,0,0-.4-0.66,2.18,2.18,0,0,0-1.13-.24,6.44,6.44,0,0,0-1.3.12c-0.39.08-.83,0.19-1.32,0.33a5.17,5.17,0,0,1-.92.21,0.47,0.47,0,0,1-.47-0.31L75.19,6A3.27,3.27,0,0,1,75,5.5a2,2,0,0,1-.09-0.45A11.88,11.88,0,0,1,78.5,0Z"/></svg>